<?xml version="1.0" standalone="no"?>
<!DOCTYPE svg PUBLIC "-//W3C//DTD SVG 20010904//EN"
 "http://www.w3.org/TR/2001/REC-SVG-20010904/DTD/svg10.dtd">
<svg version="1.0" xmlns="http://www.w3.org/2000/svg"
 width="1024.000000pt" height="1024.000000pt" viewBox="0 0 1024.000000 1024.000000"
 preserveAspectRatio="xMidYMid meet">

<g transform="translate(0.000000,1024.000000) scale(0.100000,-0.100000)"
fill="#000000" stroke="none">
<path d="M5110 8409 c-143 -39 -304 -146 -370 -247 l-32 -49 -46 9 c-104 21
-258 -12 -365 -76 -174 -105 -271 -251 -297 -449 -19 -137 8 -254 88 -385 99
-163 264 -271 416 -272 l38 0 -6 -221 c-7 -260 -3 -284 60 -346 24 -24 44 -41
44 -37 0 3 7 1 15 -6 8 -7 15 -9 15 -6 0 4 7 0 16 -8 8 -9 25 -16 37 -16 28
-1 57 -23 57 -44 0 -9 8 -16 20 -16 12 0 22 -9 26 -24 3 -14 12 -27 20 -30 10
-4 13 -2 8 7 -4 6 4 2 17 -10 42 -38 161 -51 289 -33 36 5 104 10 153 10 71 0
87 3 87 15 0 8 9 15 20 15 11 0 20 -7 20 -15 0 -12 15 -15 76 -15 75 0 76 0
72 24 -3 15 2 27 14 35 12 8 18 23 18 51 0 31 4 40 18 41 9 0 26 2 37 5 11 2
65 7 120 10 134 9 179 32 219 111 13 27 16 70 16 268 0 130 3 234 8 231 17
-10 108 16 180 51 162 80 271 222 312 408 17 72 14 230 -5 299 -51 190 -224
360 -417 412 -63 16 -195 18 -235 3 -25 -9 -29 -7 -47 18 -43 63 -185 189
-253 226 -143 76 -312 96 -463 56z m313 -188 c145 -50 236 -156 262 -302 18
-104 39 -134 89 -133 20 1 46 10 57 20 18 16 20 27 16 71 l-5 52 45 7 c184 27
379 -79 445 -244 19 -48 23 -76 23 -172 0 -103 -3 -121 -26 -170 -87 -184
-245 -263 -429 -215 -85 22 -111 36 -182 102 l-60 55 -31 -30 c-88 -83 -203
-125 -347 -125 -138 -1 -257 43 -370 137 l-55 46 -8 -29 c-4 -16 -33 -53 -67
-85 -71 -65 -128 -86 -234 -86 -128 0 -248 79 -308 201 -49 100 -60 151 -56
246 3 76 8 97 37 156 59 117 171 198 304 219 59 9 85 9 117 -1 40 -12 40 -12
40 -61 0 -41 4 -52 27 -70 18 -14 38 -20 61 -18 49 4 72 39 82 125 4 38 15 84
25 103 95 185 337 273 548 201z m-453 -1201 c78 -53 159 -72 295 -72 132 0
199 16 304 73 30 16 61 29 69 29 7 0 43 -16 78 -36 35 -20 76 -39 92 -43 l27
-7 5 -220 c3 -120 4 -222 2 -226 -2 -5 -253 -8 -558 -8 l-554 0 2 233 3 232
55 18 c30 10 57 22 60 26 8 12 44 30 60 31 8 0 35 -14 60 -30z"/>
<path d="M3734 7807 c-78 -40 -186 -103 -241 -139 -355 -237 -699 -586 -920
-933 -184 -291 -304 -527 -371 -735 -76 -234 -82 -254 -102 -352 -53 -262 -63
-372 -64 -653 -1 -234 2 -290 22 -420 58 -383 196 -792 367 -1093 272 -478
611 -846 1050 -1139 304 -203 695 -375 1020 -447 521 -117 946 -120 1431 -11
298 68 497 138 769 271 350 171 660 399 916 675 141 152 212 243 339 435 226
339 381 710 464 1104 52 248 61 343 60 645 0 231 -3 293 -23 425 -55 363 -170
703 -343 1015 -289 518 -648 916 -1106 1225 -195 131 -362 208 -362 168 0 -7
11 -42 24 -78 14 -36 28 -82 31 -102 5 -30 13 -42 38 -54 41 -21 281 -191 367
-259 349 -279 664 -672 873 -1090 118 -238 201 -465 237 -655 11 -58 24 -125
30 -150 25 -122 40 -426 29 -612 -23 -415 -129 -808 -320 -1190 -79 -158 -208
-360 -299 -468 -25 -30 -57 -71 -72 -90 -43 -57 -238 -263 -297 -313 -33 -28
-59 -44 -70 -40 -11 3 -12 2 -3 -4 16 -12 -164 -148 -193 -145 -14 1 -16 -1
-7 -7 10 -6 -1 -17 -36 -39 -28 -17 -53 -28 -56 -25 -3 4 -6 2 -6 -4 0 -13
-70 -56 -78 -48 -3 3 0 5 7 5 6 0 11 7 9 16 -2 10 4 19 12 21 13 4 13 3 0 -7
-13 -9 -12 -10 5 -7 11 2 19 9 17 16 -1 7 2 10 8 6 6 -3 10 3 10 16 0 18 4 20
27 16 33 -6 57 14 40 33 -9 10 -9 11 1 6 8 -5 12 1 12 18 0 25 3 26 53 26 41
0 58 5 72 20 20 22 8 28 -15 7 -12 -10 -12 -9 -1 6 11 14 11 20 1 32 -7 8 -9
16 -4 16 5 1 14 2 19 4 6 1 14 3 18 3 4 1 -1 12 -12 23 -17 18 -24 20 -50 11
-25 -9 -31 -8 -31 4 0 16 -8 18 -67 14 -47 -2 -52 4 -27 31 15 17 14 19 -10
25 -18 4 -25 11 -22 21 3 8 1 11 -4 8 -6 -3 -10 5 -10 19 0 14 -4 28 -10 31
-5 3 -10 -3 -10 -14 0 -12 -4 -21 -10 -21 -5 0 -10 9 -10 21 0 12 -5 19 -12
16 -7 -2 -12 -9 -11 -15 1 -5 -7 -8 -17 -5 -11 3 -20 10 -20 15 0 6 7 7 15 4
11 -4 19 3 25 20 13 33 13 34 -4 34 -8 0 -22 10 -31 23 -12 15 -19 18 -22 10
-3 -7 -9 -13 -15 -13 -6 0 -8 7 -4 15 4 12 0 14 -19 9 -21 -5 -24 -3 -19 10 6
15 22 16 128 13 75 -3 110 -1 91 4 -40 11 -332 10 -415 -1 -75 -11 -255 -15
-286 -7 -48 12 -219 10 -247 -4 -24 -11 -30 -11 -37 1 -7 11 -11 10 -24 -3 -9
-9 -17 -19 -16 -22 1 -23 -2 -27 -11 -12 -5 9 -15 17 -21 17 -6 0 -8 -3 -5 -6
11 -11 -14 -46 -28 -40 -8 3 -16 2 -18 -2 -2 -4 -2 -2 -1 5 2 7 -6 15 -17 18
-15 5 -19 16 -19 51 0 24 -4 44 -10 44 -5 0 -10 -18 -10 -41 0 -33 -3 -40 -16
-35 -9 3 -20 6 -25 6 -5 0 -9 6 -9 14 0 8 -6 17 -12 19 -7 3 2 8 20 12 36 8
44 35 10 35 -13 0 -34 12 -47 25 -19 21 -22 32 -18 70 4 26 2 45 -4 45 -5 0
-7 10 -4 23 5 18 2 22 -20 23 -14 1 -25 -3 -25 -9 0 -19 -34 -97 -42 -97 -8 0
-3 16 22 75 10 22 25 57 34 78 8 21 20 36 25 33 5 -4 13 -1 17 5 4 8 3 9 -4 5
-19 -12 -13 17 9 44 17 21 19 22 10 3 -15 -30 -14 -37 4 -19 8 8 15 19 15 24
0 6 4 12 10 14 5 2 11 17 12 33 1 17 9 35 18 42 13 11 13 12 -2 13 -25 0 -11
29 18 36 13 3 21 10 18 16 -3 5 -12 4 -21 -4 -14 -11 -15 -10 -8 12 10 32 15
37 23 23 5 -7 11 -3 19 13 10 22 9 23 -8 13 -18 -9 -19 -8 -7 13 7 13 15 25
18 28 3 3 6 12 8 20 2 8 23 58 47 110 115 251 208 465 265 615 21 55 70 172
110 260 40 88 93 207 118 264 30 68 53 106 66 111 12 4 49 17 83 28 128 41
264 156 339 287 108 187 186 338 217 420 19 50 50 122 70 161 19 38 50 108 67
154 18 47 66 160 106 251 41 92 74 179 74 193 0 32 -37 72 -75 82 -49 12 -89
-17 -123 -88 -16 -35 -35 -81 -42 -103 -7 -22 -23 -62 -35 -90 -13 -27 -33
-75 -46 -105 -29 -70 -60 -120 -121 -195 -58 -72 -81 -119 -73 -145 5 -15 12
-19 31 -14 20 5 24 3 24 -17 -1 -40 -24 -92 -110 -251 -86 -157 -117 -205
-179 -271 -47 -51 -88 -71 -205 -101 -63 -16 -107 -33 -123 -48 -43 -39 -170
-326 -438 -988 -46 -113 -109 -259 -140 -325 -31 -66 -70 -153 -87 -195 -38
-96 -141 -297 -171 -333 l-23 -27 -67 147 c-93 207 -90 194 -63 234 19 29 100
175 386 699 32 58 71 130 87 160 158 288 373 706 373 725 0 7 -23 47 -51 89
-81 123 -96 243 -53 410 18 69 43 123 89 186 17 25 69 115 115 200 68 126 96
167 149 221 54 53 70 77 90 132 23 65 79 162 126 219 13 15 31 47 40 72 16 41
16 46 0 79 -31 67 -116 73 -173 14 -24 -26 -122 -188 -122 -204 0 -5 -143
-238 -233 -378 -103 -161 -191 -335 -233 -460 -32 -97 -37 -125 -42 -236 -5
-122 -4 -129 28 -225 18 -54 39 -111 47 -125 14 -23 13 -31 -16 -100 -18 -41
-54 -114 -81 -164 -157 -292 -292 -540 -410 -750 -167 -300 -192 -343 -218
-375 l-28 -33 -89 164 c-48 90 -100 187 -115 214 -56 102 -358 711 -371 747
-13 37 -12 39 28 95 53 77 72 114 99 201 71 224 65 418 -22 664 -89 253 -272
474 -518 627 -204 127 -360 178 -515 169 -111 -7 -156 -31 -264 -141 -110
-110 -171 -213 -222 -367 -90 -278 -83 -588 18 -851 l25 -66 -68 28 c-113 48
-246 78 -410 94 -85 8 -174 17 -196 20 l-41 5 -16 -57 c-40 -150 -42 -169 -41
-363 1 -279 34 -408 150 -600 129 -213 281 -328 500 -381 125 -30 318 -24 414
14 36 13 80 30 99 36 19 6 53 27 76 46 38 31 43 40 48 87 3 29 10 94 17 145
15 126 0 270 -39 366 -16 40 -27 74 -25 76 2 2 21 -4 44 -13 56 -22 119 -36
225 -50 83 -11 91 -14 110 -43 29 -43 216 -467 315 -713 45 -113 102 -252 127
-310 25 -58 71 -168 103 -245 32 -77 69 -166 84 -198 15 -32 24 -63 20 -69 -4
-7 -3 -8 4 -4 7 4 12 1 12 -8 0 -9 -5 -16 -12 -16 -6 0 -4 -7 5 -18 10 -10 17
-24 17 -31 0 -7 4 -10 9 -7 5 3 12 -1 15 -10 9 -24 7 -31 -4 -14 -11 17 -13 1
-4 -25 6 -13 9 -14 16 -3 7 9 8 7 5 -10 -3 -12 -1 -20 3 -17 12 8 22 -29 15
-59 -3 -14 -7 -37 -10 -51 -4 -16 -10 -23 -17 -19 -6 4 -8 3 -4 -4 3 -6 -5
-37 -20 -69 -59 -132 -67 -206 -29 -298 29 -70 30 -77 9 -47 -8 12 -23 21 -32
21 -15 -1 -15 -2 1 -6 9 -2 15 -9 12 -14 -4 -5 -19 -2 -36 6 -33 17 -36 23
-13 21 9 0 19 5 21 12 3 7 -5 12 -21 12 -16 0 -26 6 -26 15 0 8 -4 15 -10 15
-5 0 -10 7 -10 15 0 8 5 15 12 15 9 0 9 3 0 12 -14 14 -16 42 -2 33 6 -3 10 3
10 15 0 12 -4 19 -9 16 -5 -3 -11 1 -15 9 -3 8 -13 15 -22 15 -14 0 -14 3 -4
16 11 12 11 15 0 12 -7 -2 -15 3 -17 11 -4 9 0 11 15 7 14 -5 24 -1 31 11 6
10 11 12 11 6 0 -22 30 -14 30 8 0 11 7 27 15 36 16 15 11 38 -6 28 -5 -4 -9
-1 -9 4 0 6 -11 11 -25 11 -22 0 -24 -4 -20 -23 6 -24 -19 -57 -32 -43 -4 3 2
13 13 20 18 14 18 15 2 21 -29 11 -22 43 9 47 14 2 28 9 31 16 10 30 -77 -4
-90 -35 -5 -13 -7 -9 -7 13 -1 35 -25 52 -47 33 -8 -6 -15 -8 -15 -3 -4 30 -3
40 6 46 6 5 4 8 -5 8 -13 0 -13 2 -1 9 9 6 11 15 6 27 -8 18 -8 18 -12 2 -3
-10 -9 -18 -15 -18 -5 0 -8 -6 -5 -12 7 -20 -12 -48 -31 -48 -14 0 -14 2 -3 9
19 12 23 41 5 41 -8 0 -14 5 -14 10 0 6 5 10 10 10 6 0 10 12 10 28 0 27 20
70 20 45 0 -7 7 -13 15 -13 18 0 20 37 3 53 -15 14 -77 37 -100 37 -22 0 -28
-31 -10 -52 13 -16 13 -18 -1 -18 -10 0 -17 5 -17 10 0 6 -11 4 -24 -5 -20
-13 -77 -15 -430 -13 -223 2 -406 0 -406 -4 0 -14 83 -18 280 -14 132 3 209 0
218 -6 7 -7 12 -7 12 -1 0 6 33 10 77 11 67 0 79 -3 98 -24 l22 -24 -4 28 c-3
19 -2 23 5 13 7 -9 12 -10 16 -2 10 16 24 13 30 -6 15 -52 18 -93 6 -93 -7 0
-10 6 -7 13 3 8 1 20 -4 28 -7 11 -11 11 -22 -5 -9 -12 -20 -17 -30 -13 -9 3
-19 2 -22 -4 -4 -5 -14 -8 -23 -7 -10 2 -16 -3 -14 -11 2 -8 -3 -11 -12 -8 -9
4 -18 2 -21 -3 -4 -6 -19 -10 -35 -10 -19 0 -33 -7 -40 -20 -11 -20 -30 -19
-30 1 0 6 5 7 10 4 6 -3 10 -2 10 4 0 6 -9 15 -21 21 -19 11 -20 9 -16 -18 5
-33 1 -34 -51 -13 -29 12 -35 12 -43 0 -7 -11 -9 -10 -10 6 l0 20 -9 -20 c-9
-22 -10 -21 -14 12 -3 28 -16 43 -16 20 0 -10 -4 -17 -10 -17 -19 0 -25 -2
-52 -22 -18 -13 -28 -15 -28 -7 0 7 -3 10 -6 6 -3 -3 -3 -11 1 -17 5 -8 14 -6
31 5 17 11 24 12 24 3 0 -6 6 -4 13 6 13 18 14 18 20 2 11 -27 -2 -38 -42 -35
-42 3 -71 24 -72 53 0 21 -1 21 -9 1 -5 -11 -9 -32 -9 -47 -1 -22 -6 -28 -23
-29 -19 -1 -17 -3 7 -9 26 -7 27 -8 6 -9 -20 -1 -21 -3 -11 -16 10 -12 9 -15
-5 -15 -10 0 -16 -3 -12 -6 8 -9 -25 -44 -36 -37 -5 3 -4 8 2 12 8 5 6 13 -5
27 -14 17 -15 17 -10 1 3 -10 2 -16 -2 -13 -4 2 -13 1 -20 -3 -9 -5 -7 -13 8
-31 20 -23 20 -23 0 -37 -17 -12 -22 -12 -41 6 -12 11 -27 17 -35 14 -29 -11
-64 6 -64 31 0 13 -8 30 -17 37 -14 10 -15 10 -7 0 13 -14 7 -51 -7 -51 -5 0
-9 6 -9 14 0 18 -57 28 -97 17 -30 -9 -35 -5 -116 69 -372 341 -679 825 -816
1287 -32 111 -95 385 -110 483 -21 138 -33 349 -26 470 7 136 33 381 41 389 2
3 39 8 82 12 l77 6 -77 1 c-43 1 -78 6 -78 11 0 28 74 329 101 411 64 193 201
476 333 685 238 379 626 756 1023 995 103 63 113 74 113 135 0 17 14 59 30 93
17 35 30 66 30 68 0 15 -53 -6 -176 -69z m50 -1242 c98 -17 178 -50 299 -124
260 -158 457 -454 506 -761 32 -194 -14 -372 -139 -540 -31 -42 -50 -78 -50
-95 0 -14 14 -59 31 -98 56 -128 250 -518 329 -662 211 -382 703 -1369 725
-1452 13 -51 13 -64 0 -108 -15 -54 -50 -108 -87 -134 -16 -11 -45 -16 -100
-16 -72 0 -79 2 -108 30 -29 27 -106 173 -125 235 -11 36 -178 454 -210 525
-15 33 -56 130 -90 215 -35 85 -86 207 -113 270 -27 63 -72 169 -100 235 -351
834 -331 790 -386 824 -20 13 -79 28 -159 41 -129 20 -230 52 -302 95 -22 13
-81 65 -131 117 -106 108 -160 203 -225 399 -47 140 -57 246 -40 416 33 327
160 562 320 594 55 10 62 10 155 -6z m-1028 -1320 c207 -27 332 -64 491 -144
57 -28 111 -51 121 -51 10 0 45 -21 77 -48 71 -56 82 -83 114 -272 18 -109 29
-320 16 -320 -5 0 -103 92 -259 242 -101 96 -300 271 -384 336 l-33 25 -25
-24 c-72 -67 -54 -102 150 -288 163 -149 449 -421 454 -432 6 -14 -68 -31
-158 -36 -202 -11 -381 71 -512 235 -93 117 -145 236 -173 401 -21 119 -18
391 5 391 3 0 55 -7 116 -15z m2859 -2205 c3 -6 1 -10 -4 -10 -6 0 -14 0 -18
-1 -4 0 -10 9 -15 20 -7 19 -5 20 12 11 10 -5 22 -15 25 -20z m-1210 -10 c-3
-60 -5 -68 -18 -73 -10 -4 -12 3 -9 25 3 19 -1 34 -9 40 -11 8 -10 9 4 4 15
-5 17 -2 12 14 -4 14 -2 20 8 20 9 0 13 -10 12 -30z m-122 -26 c-7 -20 -10
-18 -15 11 -4 20 -2 23 8 14 7 -6 10 -17 7 -25z m1667 6 c0 -5 -4 -10 -10 -10
-5 0 -10 5 -10 10 0 6 5 10 10 10 6 0 10 -4 10 -10z m67 4 c-3 -3 -12 -4 -19
-1 -8 3 -5 6 6 6 11 1 17 -2 13 -5z m-1677 -14 c0 -5 -7 -10 -16 -10 -8 0 -12
5 -9 10 3 6 10 10 16 10 5 0 9 -4 9 -10z m1280 -15 c0 -8 -2 -15 -4 -15 -2 0
-6 7 -10 15 -3 8 -1 15 4 15 6 0 10 -7 10 -15z m-1282 -12 c-20 -3 -28 -11
-31 -31 -4 -24 -4 -24 -6 6 -1 30 1 32 32 31 29 -2 29 -2 5 -6z m1615 -10 c-7
-2 -19 -2 -25 0 -7 3 -2 5 12 5 14 0 19 -2 13 -5z m742 -3 c3 -5 1 -10 -4 -10
-6 0 -11 5 -11 10 0 6 2 10 4 10 3 0 8 -4 11 -10z m123 -8 c3 -9 -3 -13 -19
-10 -12 1 -24 9 -27 16 -3 9 3 13 19 10 12 -1 24 -9 27 -16z m-1184 -8 c3 -8
2 -12 -4 -9 -6 3 -10 10 -10 16 0 14 7 11 14 -7z m1087 -7 c-10 -9 -11 -8 -5
6 3 10 9 15 12 12 3 -3 0 -11 -7 -18z m-2533 -4 c-20 -5 -25 -23 -6 -23 6 0 8
-3 5 -6 -4 -4 -13 -1 -22 6 -12 10 -15 10 -15 -3 0 -8 6 -18 13 -20 6 -3 -4
-3 -23 0 -19 3 -39 10 -45 15 -7 6 -7 9 0 8 6 -2 18 -2 29 -1 14 1 16 4 8 14
-8 9 -1 12 31 14 23 0 34 -1 25 -4z m202 -25 c0 -5 -4 -8 -10 -8 -5 0 -10 10
-10 23 0 18 2 19 10 7 5 -8 10 -18 10 -22z m1470 28 c0 -2 -7 -6 -15 -10 -8
-3 -15 -1 -15 4 0 6 7 10 15 10 8 0 15 -2 15 -4z m2 -41 c-2 -14 -6 -25 -8
-25 -2 0 -4 11 -4 25 0 14 4 25 9 25 4 0 6 -11 3 -25z m48 15 c0 -5 -4 -10
-10 -10 -5 0 -10 5 -10 10 0 6 5 10 10 10 6 0 10 -4 10 -10z m-245 -32 c3 -18
8 -53 10 -78 l4 -45 -9 45 c-4 25 -13 58 -19 73 -13 34 -13 37 -2 37 5 0 12
-15 16 -32z m-1415 -13 c0 -5 -5 -3 -10 5 -5 8 -10 20 -10 25 0 6 5 3 10 -5 5
-8 10 -19 10 -25z m1839 1 c-2 -2 -15 -7 -29 -10 l-25 -7 25 15 c21 12 42 14
29 2z m-1935 -4 c3 -5 -1 -9 -9 -9 -8 0 -12 4 -9 9 3 4 7 8 9 8 2 0 6 -4 9 -8z
m-435 -25 c0 -9 -2 -8 -6 1 -2 6 -10 9 -15 6 -7 -4 -8 -2 -4 5 9 13 26 5 25
-12z m2361 2 c0 -17 31 -38 55 -39 11 0 30 -6 41 -14 11 -8 37 -17 57 -21 30
-6 37 -12 37 -31 0 -28 14 -37 54 -36 17 1 37 -2 44 -7 8 -5 -20 -10 -68 -14
-44 -3 -87 -10 -94 -16 -7 -6 -16 -8 -19 -4 -4 3 -7 -1 -7 -11 0 -10 -7 -24
-15 -32 -8 -9 -15 -19 -15 -24 0 -5 7 -7 15 -4 8 4 15 2 15 -4 0 -19 -25 -19
-41 0 -16 18 -18 18 -42 -13 l-24 -31 -5 26 c-3 14 -2 26 1 26 3 0 6 14 7 30
1 29 0 29 -13 10 -8 -11 -24 -20 -36 -19 -12 0 -16 3 -9 6 6 2 12 11 12 20 0
8 7 21 15 30 17 17 16 34 -3 41 -7 2 -12 -7 -12 -22 0 -37 -15 -32 -27 9 -11
33 -10 35 13 36 45 3 49 4 52 23 3 14 0 17 -12 13 -13 -5 -16 0 -16 26 0 31
15 57 32 57 4 0 8 -5 8 -11z m59 -26 c2 -2 -3 -3 -11 -3 -9 0 -19 7 -22 16 -6
15 -4 15 11 3 10 -7 20 -15 22 -16z m-1565 -8 c-4 -8 -10 -12 -15 -9 -14 8
-10 24 6 24 9 0 12 -6 9 -15z m2299 -22 c-7 -2 -21 -2 -30 0 -10 3 -4 5 12 5
17 0 24 -2 18 -5z m125 -41 c-29 -5 -34 6 -12 22 17 13 20 12 25 -2 4 -12 0
-18 -13 -20z m-978 18 c0 -5 -4 -10 -10 -10 -5 0 -10 5 -10 10 0 6 5 10 10 10
6 0 10 -4 10 -10z m900 1 c0 -14 -18 -23 -31 -15 -8 4 -7 9 2 15 18 11 29 11
29 0z m-3233 -7 c-3 -3 -12 -4 -19 -1 -8 3 -5 6 6 6 11 1 17 -2 13 -5z m863
-8 c0 -23 -16 -27 -17 -5 -1 10 2 19 8 19 5 0 9 -6 9 -14z m410 -108 c16 -43
30 -82 30 -88 0 -21 -69 42 -79 72 -6 17 -11 56 -11 87 1 54 1 55 15 31 8 -14
28 -60 45 -102z m1990 103 c0 -10 -6 -23 -13 -30 -11 -8 -13 -5 -9 19 5 33 22
41 22 11z m-122 -25 c-1 -14 -5 -23 -9 -20 -4 2 -9 0 -11 -6 -4 -12 -58 10
-58 23 0 10 18 9 25 -3 11 -17 37 -11 42 10 7 27 13 25 11 -4z m-3168 4 c0 -5
-4 -10 -9 -10 -6 0 -13 5 -16 10 -3 6 1 10 9 10 9 0 16 -4 16 -10z m2298 -8
c2 -7 -7 -12 -22 -12 -30 0 -44 17 -19 23 24 6 36 3 41 -11z m-2170 -17 c-3
-3 -9 2 -12 12 -6 14 -5 15 5 6 7 -7 10 -15 7 -18z m2826 10 c-4 -8 -10 -15
-15 -15 -5 0 -9 7 -9 15 0 8 7 15 15 15 9 0 12 -6 9 -15z m291 6 c3 -5 2 -12
-3 -15 -5 -3 -9 1 -9 9 0 17 3 19 12 6z m81 -11 c0 -12 -4 -16 -9 -11 -5 5 -6
14 -3 20 10 15 12 14 12 -9z m-3319 -6 c-3 -3 -12 -4 -19 -1 -8 3 -5 6 6 6 11
1 17 -2 13 -5z m3007 -9 c-7 -17 -7 -17 -28 -9 -24 9 -19 24 9 24 18 0 23 -4
19 -15z m-2124 -16 c0 -6 -4 -7 -10 -4 -5 3 -10 11 -10 16 0 6 5 7 10 4 6 -3
10 -11 10 -16z m1893 14 c-7 -2 -21 -2 -30 0 -10 3 -4 5 12 5 17 0 24 -2 18
-5z m152 -43 c-3 -6 1 -10 9 -10 10 0 13 -6 10 -15 -4 -10 0 -15 10 -15 14 0
15 4 6 20 -6 11 -8 25 -5 30 4 6 1 9 -6 8 -6 -2 -14 4 -16 12 -4 12 -3 12 5 2
5 -8 12 -13 16 -13 3 1 17 1 31 1 22 0 23 -3 16 -23 -6 -14 -6 -30 0 -38 5 -8
9 -18 9 -24 0 -5 -4 -4 -9 4 -7 11 -13 10 -32 -8 -25 -23 -39 -27 -39 -10 0 5
-4 8 -9 4 -5 -3 -9 15 -8 42 1 31 -2 48 -12 51 -11 4 -11 6 0 13 15 9 34 -15
24 -31z m111 13 c-10 -10 -19 5 -10 18 6 11 8 11 12 0 2 -7 1 -15 -2 -18z
m-816 7 c0 -5 -4 -10 -10 -10 -5 0 -10 5 -10 10 0 6 5 10 10 10 6 0 10 -4 10
-10z m40 -16 c0 -14 -4 -23 -9 -20 -5 3 -7 15 -4 26 7 28 13 25 13 -6z m73 17
c13 -2 7 -24 -10 -37 -25 -19 -35 -17 -24 4 7 13 7 22 -1 30 -8 8 -5 10 8 7
11 -2 22 -4 27 -4z m-2318 -11 c3 -5 2 -10 -4 -10 -5 0 -13 5 -16 10 -3 6 -2
10 4 10 5 0 13 -4 16 -10z m2120 -10 c3 -5 1 -10 -4 -10 -6 0 -11 5 -11 10 0
6 2 10 4 10 3 0 8 -4 11 -10z m92 -32 c-3 -7 -5 -2 -5 12 0 14 2 19 5 13 2 -7
2 -19 0 -25z m-1950 16 c-3 -3 -12 -4 -19 -1 -8 3 -5 6 6 6 11 1 17 -2 13 -5z
m2623 2 c0 -11 -19 -15 -25 -6 -3 5 1 10 9 10 9 0 16 -2 16 -4z m130 -6 c0 -5
-7 -10 -16 -10 -8 0 -12 5 -9 10 3 6 10 10 16 10 5 0 9 -4 9 -10z m-3193 -26
c-3 -3 -12 -4 -19 -1 -8 3 -5 6 6 6 11 1 17 -2 13 -5z m3239 -26 c-3 -13 -5
-25 -5 -28 -2 -7 -21 23 -21 33 0 5 5 5 10 2 6 -3 10 -1 10 4 0 6 2 11 5 11 3
0 3 -10 1 -22z m-731 2 c3 -5 2 -10 -4 -10 -5 0 -13 5 -16 10 -3 6 -2 10 4 10
5 0 13 -4 16 -10z m-1385 -26 c0 -2 -7 -4 -15 -4 -8 0 -15 4 -15 10 0 5 7 7
15 4 8 -4 15 -8 15 -10z m-50 -14 c0 -5 -4 -10 -10 -10 -5 0 -10 5 -10 10 0 6
5 10 10 10 6 0 10 -4 10 -10z m1394 -26 c3 -8 2 -12 -4 -9 -6 3 -10 10 -10 16
0 14 7 11 14 -7z m801 -44 c3 -5 1 -10 -4 -10 -6 0 -11 5 -11 10 0 6 2 10 4
10 3 0 8 -4 11 -10z m45 -4 c0 -2 -7 -7 -16 -10 -8 -3 -12 -2 -9 4 6 10 25 14
25 6z m-960 -46 c0 -5 -2 -10 -4 -10 -3 0 -8 5 -11 10 -3 6 -1 10 4 10 6 0 11
-4 11 -10z m-2016 -35 c11 -8 16 -15 10 -15 -5 0 -18 7 -28 15 -11 8 -16 15
-10 15 5 0 18 -7 28 -15z m2119 -272 c-7 -2 -19 -2 -25 0 -7 3 -2 5 12 5 14 0
19 -2 13 -5z m-341 -63 c-26 -11 -190 -26 -182 -17 3 4 42 9 85 12 43 3 81 8
84 10 2 3 11 5 20 4 10 0 8 -4 -7 -9z m-249 -27 c-29 -2 -78 -2 -110 0 -32 2
-8 3 52 3 61 0 87 -1 58 -3z"/>
<path d="M5219 2897 c-43 -33 -49 -83 -14 -121 52 -56 165 -20 165 54 0 47
-38 80 -92 80 -24 0 -50 -6 -59 -13z"/>
<path d="M6075 2799 c-10 -15 3 -25 16 -12 7 7 7 13 1 17 -6 3 -14 1 -17 -5z"/>
<path d="M2495 7630 c-71 -29 -106 -140 -71 -223 19 -47 55 -67 120 -67 48 0
60 4 92 32 39 34 64 82 64 120 0 12 -9 40 -20 63 -32 67 -120 103 -185 75z"/>
<path d="M7886 7621 c-46 -31 -70 -78 -70 -135 0 -98 49 -146 148 -146 45 0
60 5 87 27 59 50 77 139 39 200 -39 65 -145 93 -204 54z"/>
<path d="M6856 6757 c-24 -25 -80 -116 -135 -217 -51 -96 -113 -209 -136 -251
-24 -41 -57 -106 -74 -144 -41 -90 -156 -262 -181 -270 -10 -3 -33 1 -49 9
-41 21 -44 20 -25 -9 8 -13 36 -34 61 -46 61 -29 133 -22 210 21 l56 32 -23
-39 c-13 -21 -27 -42 -32 -48 -12 -14 -10 -61 5 -73 7 -6 24 -15 39 -21 25 -9
26 -9 15 20 -9 22 -9 34 1 49 6 10 9 25 7 33 -3 7 13 39 35 71 47 66 80 129
108 201 11 28 79 166 150 307 72 142 134 274 138 293 9 48 -11 90 -51 109 -52
25 -75 20 -119 -27z"/>
<path d="M7690 5705 c-263 -36 -495 -130 -649 -262 -63 -54 -186 -223 -236
-325 -75 -153 -90 -208 -89 -333 1 -98 4 -119 32 -194 18 -47 32 -87 32 -90 0
-4 -20 -31 -45 -61 -46 -56 -54 -84 -34 -123 18 -35 61 -77 79 -77 10 0 40 25
68 55 28 30 56 55 63 55 6 0 43 -10 81 -21 62 -19 86 -21 192 -16 137 6 236
29 350 81 183 83 297 199 400 404 96 191 131 338 123 525 -2 70 -1 127 4 127
5 0 9 5 9 11 0 5 -4 8 -9 4 -12 -7 -18 12 -30 108 -12 84 -30 131 -56 141 -27
10 -182 5 -285 -9z m156 -185 c0 -8 5 -33 11 -55 19 -69 24 -168 13 -271 -14
-138 -30 -187 -117 -374 -40 -85 -157 -195 -268 -252 -123 -63 -204 -88 -284
-88 -63 0 -136 12 -148 24 -8 7 137 162 422 451 247 251 294 309 276 343 -12
23 -68 72 -81 72 -5 0 -171 -162 -370 -360 -198 -198 -367 -360 -375 -360 -20
0 -38 72 -39 155 0 78 27 174 76 265 42 80 153 207 233 268 108 81 283 149
467 182 123 21 183 22 184 0z"/>
<path d="M7650 4785 c-24 -25 -42 -45 -39 -45 3 0 25 20 49 45 24 25 42 45 39
45 -3 0 -25 -20 -49 -45z"/>
<path d="M5395 5597 c-4 -10 -27 -29 -52 -44 -61 -35 -121 -29 -169 18 -36 35
-45 25 -21 -24 9 -19 18 -25 34 -22 12 2 23 0 25 -4 2 -4 35 -4 73 -1 39 3 72
3 73 -2 2 -4 12 -8 23 -8 10 0 19 -5 19 -12 0 -6 3 -9 6 -6 9 10 12 82 4 103
-7 19 -8 19 -15 2z"/>
<path d="M5156 5503 c-4 -5 -76 -11 -159 -14 l-152 -5 156 -2 c131 -2 158 0
163 13 6 16 3 19 -8 8z"/>
<path d="M5498 5483 c12 -2 32 -2 45 0 12 2 2 4 -23 4 -25 0 -35 -2 -22 -4z"/>
<path d="M3048 5473 c6 -2 18 -2 25 0 6 3 1 5 -13 5 -14 0 -19 -2 -12 -5z"/>
<path d="M5778 5473 c12 -2 32 -2 45 0 12 2 2 4 -23 4 -25 0 -35 -2 -22 -4z"/>
<path d="M6920 5470 c0 -5 5 -10 11 -10 5 0 7 5 4 10 -3 6 -8 10 -11 10 -2 0
-4 -4 -4 -10z"/>
<path d="M4242 3540 c0 -14 2 -19 5 -12 2 6 2 18 0 25 -3 6 -5 1 -5 -13z"/>
<path d="M6718 3443 c29 -2 74 -2 100 0 26 2 2 3 -53 3 -55 0 -76 -1 -47 -3z"/>
<path d="M6938 3443 c12 -2 32 -2 45 0 12 2 2 4 -23 4 -25 0 -35 -2 -22 -4z"/>
<path d="M7161 3178 c7 -12 11 -38 11 -57 -2 -49 7 -55 33 -26 13 14 33 25 45
25 20 0 20 1 3 28 -25 38 -44 51 -76 52 -26 0 -27 -2 -16 -22z"/>
<path d="M4350 3165 c0 -14 4 -25 9 -25 4 0 6 11 3 25 -2 14 -6 25 -8 25 -2 0
-4 -11 -4 -25z"/>
<path d="M4435 3150 c3 -5 13 -10 21 -10 8 0 12 5 9 10 -3 6 -13 10 -21 10 -8
0 -12 -4 -9 -10z"/>
<path d="M4497 3120 c-16 -19 -16 -20 16 -19 18 1 24 3 14 6 -11 3 -16 11 -13
19 7 19 4 18 -17 -6z"/>
<path d="M5970 3125 c0 -5 5 -17 10 -25 5 -8 10 -10 10 -5 0 6 -5 17 -10 25
-5 8 -10 11 -10 5z"/>
<path d="M4640 3110 c-17 -10 -14 -15 18 -24 18 -6 22 -3 22 13 0 22 -16 27
-40 11z"/>
<path d="M5880 3056 c0 -8 -5 -16 -12 -18 -9 -3 -9 -6 0 -12 7 -4 12 -2 12 4
0 6 4 9 9 6 5 -4 7 3 4 14 -6 23 -13 26 -13 6z"/>
<path d="M4710 3039 c0 -5 9 -9 20 -9 11 0 20 4 20 8 0 4 -9 8 -20 9 -11 1
-20 -2 -20 -8z"/>
<path d="M5821 3043 c-1 -6 -4 -20 -7 -30 -5 -17 -5 -17 6 0 6 10 9 23 6 30
-3 9 -5 9 -5 0z"/>
<path d="M5843 3028 c3 -9 1 -18 -4 -20 -6 -2 -4 -11 4 -22 13 -17 14 -17 20
-2 5 11 3 15 -5 10 -7 -5 -9 -2 -6 8 4 8 2 21 -4 29 -8 11 -9 11 -5 -3z"/>
<path d="M4116 2992 c-4 -13 -5 -26 -2 -29 10 -11 18 4 14 29 l-4 23 -8 -23z"/>
<path d="M4210 3000 c0 -5 5 -10 11 -10 5 0 7 5 4 10 -3 6 -8 10 -11 10 -2 0
-4 -4 -4 -10z"/>
<path d="M4733 2995 c0 -8 4 -12 9 -9 4 3 8 9 8 15 0 5 -4 9 -8 9 -5 0 -9 -7
-9 -15z"/>
<path d="M3848 2993 c7 -3 16 -2 19 1 4 3 -2 6 -13 5 -11 0 -14 -3 -6 -6z"/>
<path d="M4045 2990 c3 -5 10 -10 16 -10 5 0 9 5 9 10 0 6 -7 10 -16 10 -8 0
-12 -4 -9 -10z"/>
<path d="M4678 2993 c6 -2 10 -8 7 -13 -3 -4 5 -6 17 -2 21 5 21 6 2 13 -10 4
-23 8 -29 8 -5 -1 -4 -3 3 -6z"/>
<path d="M4541 2974 c0 -11 3 -14 6 -6 3 7 2 16 -1 19 -3 4 -6 -2 -5 -13z"/>
<path d="M3906 2967 c3 -10 9 -15 12 -12 3 3 0 11 -7 18 -10 9 -11 8 -5 -6z"/>
<path d="M4740 2970 c-9 -6 -10 -10 -3 -10 6 0 15 5 18 10 8 12 4 12 -15 0z"/>
<path d="M3992 2954 c-7 -8 -8 -14 -3 -14 10 0 25 19 20 25 -2 1 -10 -3 -17
-11z"/>
<path d="M4645 2950 c-3 -5 -1 -10 4 -10 6 0 11 5 11 10 0 6 -2 10 -4 10 -3 0
-8 -4 -11 -10z"/>
<path d="M6850 2950 c0 -5 5 -10 10 -10 6 0 10 5 10 10 0 6 -4 10 -10 10 -5 0
-10 -4 -10 -10z"/>
<path d="M4605 2940 c-3 -6 -17 -7 -29 -4 -18 4 -25 1 -29 -15 -7 -27 5 -34
29 -17 10 8 24 12 31 9 8 -3 13 3 13 16 0 23 -5 27 -15 11z"/>
<path d="M4050 2929 c0 -5 5 -7 10 -4 6 3 10 8 10 11 0 2 -4 4 -10 4 -5 0 -10
-5 -10 -11z"/>
<path d="M3619 2854 c-18 -22 8 -25 32 -5 l24 20 -23 -2 c-13 -1 -28 -7 -33
-13z"/>
<path d="M7176 2827 c3 -10 9 -15 12 -12 3 3 0 11 -7 18 -10 9 -11 8 -5 -6z"/>
<path d="M4725 2819 c-4 -6 -5 -12 -2 -15 2 -3 7 2 10 11 7 17 1 20 -8 4z"/>
<path d="M7050 2819 c0 -5 5 -7 10 -4 6 3 10 8 10 11 0 2 -4 4 -10 4 -5 0 -10
-5 -10 -11z"/>
<path d="M7114 2799 c-3 -6 -17 -9 -30 -6 -14 2 -27 0 -30 -5 -4 -5 12 -8 37
-6 23 2 44 9 47 16 5 15 -14 16 -24 1z"/>
<path d="M7135 2760 c-3 -5 1 -10 9 -10 9 0 16 5 16 10 0 6 -4 10 -9 10 -6 0
-13 -4 -16 -10z"/>
<path d="M3510 2749 c0 -5 5 -7 10 -4 6 3 10 8 10 11 0 2 -4 4 -10 4 -5 0 -10
-5 -10 -11z"/>
<path d="M4670 2740 c0 -11 2 -20 4 -20 2 0 6 9 9 20 3 11 1 20 -4 20 -5 0 -9
-9 -9 -20z"/>
<path d="M4635 2730 c-4 -6 -12 -7 -18 -4 -9 5 -9 4 0 -6 13 -14 43 -7 43 10
0 13 -17 13 -25 0z"/>
<path d="M3546 2715 c4 -8 10 -15 15 -15 5 0 9 7 9 15 0 8 -7 15 -15 15 -9 0
-12 -6 -9 -15z"/>
<path d="M7160 2709 c0 -5 5 -7 10 -4 6 3 10 8 10 11 0 2 -4 4 -10 4 -5 0 -10
-5 -10 -11z"/>
<path d="M7915 2659 c-17 -5 -44 -22 -60 -39 -26 -27 -30 -40 -33 -98 -4 -80
15 -119 71 -145 102 -49 206 13 215 127 3 41 -1 58 -20 85 -39 58 -111 87
-173 70z"/>
<path d="M2464 2641 c-60 -37 -83 -141 -46 -210 21 -39 73 -71 115 -71 74 0
146 62 154 134 7 57 -9 97 -54 136 -28 25 -42 30 -86 30 -33 0 -63 -7 -83 -19z"/>
</g>
</svg>
