<?xml version="1.0" standalone="no"?>
<!DOCTYPE svg PUBLIC "-//W3C//DTD SVG 20010904//EN"
 "http://www.w3.org/TR/2001/REC-SVG-20010904/DTD/svg10.dtd">
<svg version="1.0" xmlns="http://www.w3.org/2000/svg"
 width="235.000000pt" height="230.000000pt" viewBox="0 0 235.000000 230.000000"
 preserveAspectRatio="xMidYMid meet">

<g transform="translate(0.000000,230.000000) scale(0.100000,-0.100000)"
fill="#000000" stroke="none">
<path d="M1128 2004 c-15 -8 -32 -24 -39 -35 -6 -12 -17 -18 -25 -15 -23 9
-78 -18 -102 -49 -41 -52 -17 -149 43 -177 24 -11 25 -15 25 -103 0 -57 4 -95
12 -103 8 -8 51 -12 129 -12 143 0 143 0 147 120 4 81 6 88 28 99 31 14 64 68
64 104 0 16 -8 42 -17 58 -17 29 -84 69 -115 69 -9 0 -19 7 -22 15 -6 16 -64
45 -88 45 -7 -1 -25 -7 -40 -16z m67 -70 c8 -4 23 -20 31 -36 13 -26 19 -28
49 -22 29 5 36 2 51 -20 26 -41 7 -74 -47 -82 l-42 -7 7 -94 7 -94 -73 3 -73
3 -5 88 -5 87 -35 18 c-42 20 -61 62 -40 87 11 13 24 16 57 11 24 -3 43 -2 43
3 0 12 40 61 50 61 5 0 16 -3 25 -6z"/>
<path d="M560 1859 c-14 -25 -20 -18 159 -193 79 -78 150 -155 157 -173 8 -18
14 -51 14 -73 0 -75 -76 -122 -167 -105 -32 6 -65 34 -201 168 -90 89 -165
164 -167 166 -8 7 -35 -21 -35 -35 0 -17 118 -153 236 -271 72 -72 101 -94
135 -103 48 -13 152 -8 172 9 10 8 34 -12 97 -81 l84 -90 -65 -62 c-178 -169
-240 -226 -309 -286 -41 -36 -77 -67 -80 -70 -3 -3 -26 -23 -52 -44 -59 -47
-88 -93 -88 -137 0 -36 24 -79 56 -104 24 -18 87 -19 122 -1 15 8 130 121 256
252 127 131 245 251 264 268 l34 30 160 -165 c88 -90 204 -211 257 -268 53
-56 108 -109 123 -117 15 -8 48 -14 74 -14 39 0 51 5 79 33 83 83 60 135 -125
289 -75 64 -210 186 -354 323 -6 6 -27 23 -47 38 l-36 27 92 94 93 95 43 -16
c140 -48 325 67 419 261 36 75 40 90 40 163 0 72 -3 84 -28 119 -96 131 -320
104 -481 -59 -82 -82 -129 -227 -103 -318 l10 -36 -71 -54 c-39 -30 -91 -73
-116 -95 l-45 -41 -54 58 c-29 32 -76 75 -103 95 -46 34 -49 38 -43 69 3 20
-1 58 -10 92 -16 55 -25 66 -184 220 -92 90 -175 163 -184 163 -10 0 -22 -9
-28 -21z m1318 -86 c42 -31 54 -61 49 -124 -9 -115 -106 -257 -211 -311 -56
-30 -144 -31 -182 -2 -56 41 -69 70 -69 148 0 66 3 78 36 132 89 144 285 226
377 157z m-833 -553 c66 -58 72 -66 57 -78 -15 -12 -25 -5 -84 57 -63 65 -84
98 -57 89 5 -2 43 -33 84 -68z m315 3 c-68 -74 -192 -193 -201 -193 -4 0 -12
7 -19 15 -10 13 -10 19 5 35 10 11 27 22 39 26 11 3 41 26 66 49 57 55 142
124 154 124 5 1 -15 -25 -44 -56z m-251 -222 c11 -20 23 -6 -323 -376 -93 -99
-180 -184 -193 -189 -30 -10 -63 16 -63 51 0 26 12 39 110 123 81 68 158 139
280 256 117 112 163 153 172 154 4 0 12 -8 17 -19z m316 -133 c76 -69 303
-268 363 -316 55 -47 64 -72 35 -104 -37 -42 -58 -27 -243 172 -85 91 -199
209 -253 263 -97 96 -99 98 -81 118 18 19 18 19 73 -34 31 -29 79 -74 106 -99z"/>
<path d="M1730 1751 c-48 -10 -76 -26 -133 -80 -70 -65 -91 -111 -83 -180 10
-86 50 -129 75 -83 7 14 6 25 -6 42 -14 20 -15 30 -5 67 7 24 20 55 29 69 24
38 97 84 153 97 41 10 50 16 50 34 0 18 -29 47 -42 42 -2 -1 -19 -4 -38 -8z"/>
<path d="M466 1784 c-21 -21 -20 -31 7 -57 179 -171 313 -294 329 -302 29 -13
52 19 35 49 -20 36 -323 326 -340 326 -8 0 -23 -7 -31 -16z"/>
<path d="M393 1698 c-13 -6 -23 -15 -23 -19 0 -4 19 -25 43 -47 23 -21 102
-94 175 -161 131 -120 162 -138 170 -98 6 29 -307 340 -337 336 -3 0 -16 -5
-28 -11z"/>
<path d="M392 1068 c-18 -18 -15 -46 8 -58 12 -6 78 -9 171 -8 132 3 153 5
163 21 8 12 8 22 0 35 -10 15 -31 17 -170 20 -116 2 -163 -1 -172 -10z"/>
<path d="M1626 1062 c-9 -27 3 -51 28 -57 11 -3 86 -4 165 -3 124 3 145 5 155
21 8 12 8 22 0 35 -10 15 -32 17 -177 20 -155 2 -166 1 -171 -16z"/>
<path d="M1142 733 c-4 -10 -5 -101 -2 -203 5 -172 6 -185 24 -188 40 -8 46
22 46 208 0 124 -4 180 -12 188 -17 17 -46 15 -56 -5z"/>
<path d="M1967 340 c-29 -23 -35 -57 -16 -93 16 -30 28 -37 71 -37 64 0 90 65
46 114 -33 36 -68 42 -101 16z m75 -12 c25 -20 30 -73 9 -92 -19 -17 -41 -21
-41 -7 0 5 9 11 19 14 23 6 24 63 2 77 -27 16 -41 0 -38 -46 3 -47 -6 -56 -23
-25 -15 29 -12 49 10 71 23 23 40 25 62 8z m-21 -65 c-9 -16 -10 -14 -11 12 0
21 3 26 11 18 8 -8 8 -16 0 -30z"/>
</g>
</svg>
